# xmcd
# 
# Track frame offsets:
#     150
#     19652
#     43385
#     63260
#     79285
#     101432
#     118515
#     131232
# 
# Disc length: 1941
# 
# Revision: 5
# Processed by: cddbd v1.5.2PL0 Copyright (c) Steve Scherf et al.
# Submitted via: BonkEnc v1.0.15
# 
DISCID=6a079308
DTITLE=John Coltrane Quartet - k-Ballads
DYEAR=1962
DGENRE=Jazz
TTITLE0=Say It (Over And Over Again)
TTITLE1=You Don't Know What Love Is
TTITLE2=Too Young To Go Steady
TTITLE3=All Or Nothing At All
TTITLE4=I Wish I Knew
TTITLE5=What's New
TTITLE6=It's Easy To Remember
TTITLE7=Nancy (With The Laughing Face)
EXTD=YEAR: 1962
EXTT0=
EXTT1=
EXTT2=
EXTT3=
EXTT4=
EXTT5=
EXTT6=
EXTT7=
PLAYORDER=
